<svg width="18" height="16" viewBox="0 0 18 16" fill="none" xmlns="http://www.w3.org/2000/svg">
<path d="M16.1498 4.6787C16.1612 4.84275 16.1612 5.00684 16.1612 5.1709C16.1612 10.1748 12.4493 15.9404 5.66499 15.9404C3.57488 15.9404 1.63326 15.3193 0 14.2412C0.296966 14.2764 0.582471 14.2881 0.890863 14.2881C2.61546 14.2881 4.20305 13.6904 5.47083 12.6709C3.84899 12.6357 2.48985 11.5459 2.02156 10.0459C2.25001 10.081 2.47842 10.1045 2.71829 10.1045C3.0495 10.1045 3.38074 10.0576 3.6891 9.97559C1.99875 9.624 0.730936 8.10058 0.730936 6.26074V6.21388C1.22204 6.49513 1.79315 6.67091 2.39844 6.69432C1.40478 6.01462 0.753788 4.85448 0.753788 3.54197C0.753788 2.83885 0.936496 2.19432 1.25631 1.63182C3.07232 3.92869 5.80203 5.42867 8.86293 5.59276C8.80583 5.31151 8.77155 5.01857 8.77155 4.72559C8.77155 2.63963 10.4162 0.94043 12.4607 0.94043C13.5228 0.94043 14.4822 1.39746 15.1561 2.13574C15.9898 1.97169 16.7893 1.65527 17.4975 1.22168C17.2233 2.10061 16.6409 2.83889 15.8756 3.30761C16.618 3.22562 17.3376 3.01463 18 2.72169C17.4975 3.47166 16.8693 4.1396 16.1498 4.6787Z" fill="#9E9E9E"/>
</svg>
